<?xml version="1.0" encoding="utf-8"?>
<!-- Generator: Adobe Illustrator 27.5.0, SVG Export Plug-In . SVG Version: 6.00 Build 0)  -->
<svg version="1.1" xmlns="http://www.w3.org/2000/svg" xmlns:xlink="http://www.w3.org/1999/xlink" x="0px" y="0px"
	 viewBox="0 0 500 500" style="enable-background:new 0 0 500 500;" xml:space="preserve">
<g id="BACKGROUND">
	<rect style="fill:#5A6FD6;" width="500" height="500"/>
</g>
<g id="OBJECTS">
	<circle style="fill:#FFFFFF;" cx="250" cy="250" r="206.076"/>
	<g>
		<g>
			<g>
				<path style="fill:#FFA822;" d="M66.805,258.14c0,0-20.26,1.752-21.206-7.699c-0.945-9.452,13.415-6.94,24.377,4.363
					L66.805,258.14z"/>
				<path style="fill:#FFA822;" d="M66.877,256.591c0,0-14.27-14.488-7.593-21.244c6.678-6.756,13.901,5.908,12.186,21.56
					L66.877,256.591z"/>
				<path style="fill:#FFA822;" d="M70.852,253.78c0,0-0.593-20.327,8.897-20.732c9.491-0.404,6.163,13.79-5.748,24.089
					L70.852,253.78z"/>
				<path style="fill:none;stroke:#7A3D2C;stroke-linecap:round;stroke-linejoin:round;stroke-miterlimit:10;" d="M71.251,258.331
					c15.326,21.276,24.537,46.906,26.259,73.071"/>
				<path style="fill:#FFA822;" d="M89.822,294.151c0.05-0.3,0.1-0.6,0.15-0.91c0.83-4.76,5.07-26.44,12.92-22.89
					c0.16,0.07,0.32,0.16,0.48,0.25C112.502,275.852,89.822,294.151,89.822,294.151z"/>
				<path style="fill:#FF6B3D;" d="M102.892,270.352c-6.52,5.87-11.35,14.31-12.92,22.89
					C90.802,288.482,95.042,266.802,102.892,270.352z"/>
				<path style="fill:#FFA822;" d="M89.822,294.151c0,0-0.02,0-0.07,0.01h-0.01c-1.72,0.22-30.68,3.76-28.56-6.69
					c0.11-0.54,0.28-1.02,0.52-1.42c4.08-7.29,26.02,6.74,27.98,8.01c0.05,0.03,0.09,0.05,0.11,0.07
					C89.812,294.142,89.822,294.151,89.822,294.151z"/>
				<path style="fill:#FFA822;" d="M71.251,251.752c0,0,15.53-17.551,23.824-10.407c8.294,7.144-5.694,16.448-23.824,15.712V251.752
					z"/>
				<path style="fill:#FFA822;" d="M68.156,258.657c0,0-16.974,16.159-24.627,8.332c-7.653-7.827,7.08-15.901,25.081-13.617
					L68.156,258.657z"/>
				<path style="fill:#FFA822;" d="M73.084,253.042c0,0,20.293-1.322,21.037,8.148c0.744,9.47-13.56,6.653-24.279-4.88
					L73.084,253.042z"/>
				<path style="fill:#FFA822;" d="M72.979,254.589c0,0,13.959,14.788,7.14,21.401c-6.82,6.612-13.772-6.202-11.725-21.814
					L72.979,254.589z"/>
				<path style="fill:#FFA822;" d="M68.945,257.315c0,0,0.161,20.335-9.336,20.538c-9.497,0.202-5.868-13.918,6.258-23.961
					L68.945,257.315z"/>
				<path style="fill:#FF6B3D;" d="M62.911,261.828c0,0,11.343-0.254,16.115-7.613c0,0-6.059-11.601-12.851-8.473
					C56.086,250.389,62.911,261.828,62.911,261.828z"/>
				<path style="fill:#FF6B3D;" d="M89.882,294.072c-0.03,0.02-0.06,0.04-0.09,0.06c-0.01,0.01-0.03,0.02-0.04,0.03h-0.01
					c-1.72,0.22-30.68,3.76-28.56-6.69c0.11-0.54,0.28-1.02,0.52-1.42c1.66,1.83,4.22,2.99,6.64,3.83
					c6.87,2.4,14.08,3.81,21.34,4.18C89.752,294.062,89.812,294.072,89.882,294.072z"/>
			</g>
			<path style="fill:#0186CB;" d="M90.44,356.73c-2.12,4.39-4.65,8.67-6.96,13.01c-0.7,1.31-1.38,2.62-2.02,3.95
				c-1.52,3.16-3.21,6.25-6.47,7.54c-12.48-11.94-20.48-28.48-22.08-45.69c-0.69-7.43-0.24-15-1.85-22.29
				c-1.61-7.29-5.83-14.59-12.81-17.24c0.56-0.16,1.13-0.29,1.7-0.37c6.46-0.98,13.36,2.8,17.92,7.6
				c4.95,5.24,7.68,12.16,9.82,19.04c2.13,6.88,3.82,13.98,7.15,20.36C78.18,349.03,83.5,354.79,90.44,356.73z"/>
			<path style="fill:#015287;" d="M83.48,369.74c-0.7,1.31-1.38,2.62-2.02,3.95c-1.52,3.16-3.21,6.25-6.47,7.54
				c-12.48-11.94-20.48-28.48-22.08-45.69c-0.69-7.43-0.24-15-1.85-22.29c-1.61-7.29-5.83-14.59-12.81-17.24
				c0.56-0.16,1.13-0.29,1.7-0.37c0.41,0.05,0.81,0.13,1.2,0.23c9.35,2.39,15.92,11.02,19.26,20.07c3.33,9.06,4.16,18.82,6.44,28.19
				c2.29,9.37,6.47,18.91,14.48,24.29C82.03,368.89,82.75,369.32,83.48,369.74z"/>
			<path style="fill:none;stroke:#FFFFFF;stroke-linecap:round;stroke-linejoin:round;stroke-miterlimit:10;" d="M49.901,301.251
				c6.905,5.388,10.364,14.084,12.299,22.626c1.934,8.542,2.668,17.391,5.601,25.644c2.933,8.253,8.643,16.158,16.994,18.798"/>
			<path style="fill:#01AB92;" d="M75.67,419.47c-0.23,0.91-0.48,1.81-0.74,2.72c-7.17-1.36-13.44-5.98-17.88-11.76
				c-4.45-5.78-7.23-12.68-9.31-19.67c-5.63-18.94-6.4-39.31-2.2-58.61c0.01-0.03,0.01-0.06,0.02-0.09
				c13.64,10.53,24,24.06,29.38,40.43C80.02,387.97,79.73,403.79,75.67,419.47z"/>
			<path style="fill:#01CBAD;" d="M75.67,419.47c-0.5-0.55-0.98-1.12-1.45-1.7c-5.74-7.05-10.1-15.88-13.79-24.97
				c-7.75-19.08-12.82-39.81-14.89-60.65c0.01-0.03,0.01-0.06,0.02-0.09c13.64,10.53,24,24.06,29.38,40.43
				C80.02,387.97,79.73,403.79,75.67,419.47z"/>
			<path style="fill:none;stroke:#FFFFFF;stroke-linecap:round;stroke-linejoin:round;stroke-miterlimit:10;" d="M49.073,344.544
				c3.924,22.92,11.021,45.295,21.024,66.287"/>
			<path style="fill:#FEAEA3;" d="M156.889,191.858c-7.566-8.522-43.038,15.372-46.346,38.577l13.478,8.031
				C124.021,238.466,164.658,200.608,156.889,191.858z"/>
			<path style="fill:#FEAEA3;" d="M147.722,218.226c0,0,38.449-17.86,32.248-27.783c-6.201-9.922-58.925,26.509-58.925,26.509
				l12.786,8.778L147.722,218.226z"/>
			<path style="fill:#FEAEA3;" d="M195.95,201.98c-6.71,9.65-31.25,21.04-31.25,21.04l-8.41,4.55l-5.48,2.96l-7.02-13.71
				c0,0,46.96-31.5,53.16-21.58C198.2,197.24,197.64,199.55,195.95,201.98z"/>
			<path style="fill:#E88E82;" d="M195.95,201.98c-6.71,9.65-31.25,21.04-31.25,21.04l-8.41,4.55l-1.76-3.44
				C154.53,224.13,180.06,207,195.95,201.98z"/>
			<path style="fill:#FEAEA3;" d="M178.842,230.963c0,0,38.449-17.86,32.247-27.782c-6.201-9.922-53.158,21.581-53.158,21.581
				l7.019,13.705L178.842,230.963z"/>
			<path style="fill:#FED3CD;" d="M109.138,293.225v-53.622c0,0-0.744-26.428,26.79-29.565c23.317-2.145,34.78,15.467,34.78,15.467
				s17.809-10.389,21.777-3.706c3.969,6.683-12.403,22.538-30.759,29.742l12.899,33.867L109.138,293.225z"/>
			<path style="fill:#E88E82;" d="M109.14,283.395h6.82V237.77c0,0-0.57-20.3,17.82-27.43c-25.35,4.23-24.64,29.26-24.64,29.26
				V283.395z"/>
			<polygon style="fill:#015287;" points="208.36,345.07 136.32,346.37 112.11,346.81 103.18,282.06 126.67,276.38 176.86,264.23 
							"/>
			<polygon style="fill:#0186CB;" points="208.36,345.07 136.32,346.37 126.67,276.38 176.86,264.23 			"/>
			<path style="fill:none;stroke:#7A3D2C;stroke-linecap:round;stroke-linejoin:round;stroke-miterlimit:10;" d="M227.89,234.437
				c12.656,23.002,19.346,49.253,19.244,75.507"/>
			<path style="fill:#01CBAD;" d="M260.96,330.99v56.62h-30.05c-9.14-16.96-17.81-34.7-23.44-53.12
				c-2.91-9.55-2.57-20.06,0.95-29.39c1.64-4.36,3.99-8.66,3.88-13.31c-0.1-4.41-2.43-8.47-5.17-11.92
				c-2.74-3.45-5.97-6.54-8.36-10.24c-6.68-10.32-5.52-25.04,2.64-34.22c0.12-0.14,0.25-0.29,0.38-0.43
				c-2.67,6.65,2.22,15.64,7.05,20.93s11.25,8.8,17.1,12.94c5.85,4.13,11.47,9.38,13.34,16.29c1.6,5.93,0.22,12.22,0.63,18.34
				C240.73,315.69,249.39,327.01,260.96,330.99z"/>
			<path style="fill:#01AB92;" d="M260.96,365.2v22.41h-30.05c-9.14-16.96-17.81-34.7-23.44-53.12c-2.91-9.55-2.57-20.06,0.95-29.39
				c1.64-4.36,3.99-8.66,3.88-13.31c-0.1-4.41-2.43-8.47-5.17-11.92c-2.74-3.45-5.97-6.54-8.36-10.24
				c-6.68-10.32-5.52-25.04,2.64-34.22c-4.25,13.3-0.13,29.2,10.63,38.25c5.01,4.22,11.28,7.12,15.14,12.42
				c5.42,7.44,4.72,17.59,3.1,26.65c-1.61,9.06-3.87,18.57-0.86,27.26c3.14,9.06,11.41,15.35,19.93,19.75
				C253.13,361.7,257.07,363.41,260.96,365.2z"/>
			<path style="fill:none;stroke:#FFFFFF;stroke-linecap:round;stroke-linejoin:round;stroke-miterlimit:10;" d="M200.222,254.279
				c0.071,6.934,5.783,12.429,11.524,16.318c5.741,3.889,12.247,7.37,15.567,13.458c2.823,5.176,2.836,11.436,1.919,17.26
				c-0.918,5.824-2.689,11.512-3.204,17.385c-0.775,8.84,1.414,17.915,6.136,25.428c4.722,7.514,11.948,13.423,20.249,16.559"/>
			<path style="fill:#FFA822;" d="M452.35,369.82c-0.04,0.71-0.09,1.42-0.17,2.13c-2.22,23.29-18.94,44.68-41.13,52.25
				c1.26-6.34,3.45-12.43,6.38-18.18C425.09,391.02,437.81,378.38,452.35,369.82z"/>
			<path style="fill:#FF6B3D;" d="M452.18,371.95c-2.22,23.29-18.94,44.68-41.13,52.25c1.26-6.34,3.45-12.43,6.38-18.18
				C432.43,399.04,445.12,386.88,452.18,371.95z"/>
			<path style="fill:none;stroke:#FFFFFF;stroke-linecap:round;stroke-linejoin:round;stroke-miterlimit:10;" d="M412.579,413.583
				c13.274-7.552,24.584-18.523,32.535-31.563"/>
			<path style="fill:#01CBAD;" d="M453.56,273.64c-0.09,6.41,1.82,12.66,3.1,18.95s1.89,13.05-0.65,18.94
				c-3.58,8.31-12.47,12.95-17.83,20.23c-6.3,8.53-7.19,19.86-6.73,30.45c0.47,10.6,2.05,21.34-0.18,31.71
				c-2.23,10.37-9.45,20.6-19.9,22.38c3.63-7.67,3.41-15.88,2.46-24.32c-0.13-1.14-0.28-2.27-0.45-3.4
				c-1.03-7.28-2.62-14.49-3.13-21.82c-1.49-21.49,6.89-43.47,22.32-58.5c4.19-4.08,8.99-7.84,11.49-13.13
				c2.22-4.69,2.37-10.07,2.5-15.26c0.12-5.2,0.3-10.57,2.56-15.25c2.01-4.13,6.31-7.4,10.81-7.55c0.61-0.04,1.21,0,1.82,0.09
				C456.19,260.36,453.65,267.22,453.56,273.64z"/>
			<path style="fill:#01AB92;" d="M453.56,273.64c-0.09,6.41,1.82,12.66,3.1,18.95s1.89,13.05-0.65,18.94
				c-3.58,8.31-12.47,12.95-17.83,20.23c-6.3,8.53-7.19,19.86-6.73,30.45c0.47,10.6,2.05,21.34-0.18,31.71
				c-2.23,10.37-9.45,20.6-19.9,22.38c3.63-7.67,3.41-15.88,2.46-24.32c-0.13-1.14-0.28-2.27-0.45-3.4
				c0.89-1.52,1.67-3.09,2.34-4.69c4.2-10.05,4.92-21.14,6.42-31.93c1.5-10.79,4.06-21.95,11.09-30.26
				c5.1-6.02,12.36-10.33,15.87-17.39c2.89-5.82,2.77-12.62,2.42-19.1c-0.36-6.49-0.87-13.2,1.37-19.29
				c1.3-3.57,3.85-6.87,7.04-8.85c0.61-0.04,1.21,0,1.82,0.09C456.19,260.36,453.65,267.22,453.56,273.64z"/>
			<path style="fill:none;stroke:#FFFFFF;stroke-linecap:round;stroke-linejoin:round;stroke-miterlimit:10;" d="M409.928,396.501
				c8.106-7.532,11.058-19.087,12.15-30.098c1.091-11.011,0.736-22.291,3.886-32.898c3.763-12.668,12.624-23.743,24.158-30.193"/>
			<g>
				<path style="fill:#015287;" d="M400.215,434.183H276.957c-8.717,0-15.784-7.067-15.784-15.784V173.536
					c0-8.717,7.067-15.784,15.784-15.784h123.258c8.717,0,15.784,7.067,15.784,15.784v244.863
					C415.999,427.116,408.932,434.183,400.215,434.183z"/>
				<path style="fill:#0186CB;" d="M381.871,434.183H261.173c-9.424,0-17.064-7.64-17.064-17.064V174.816
					c0-9.424,7.64-17.064,17.064-17.064h120.698c9.424,0,17.064,7.64,17.064,17.064V417.12
					C398.935,426.544,391.296,434.183,381.871,434.183z"/>
				<path style="fill:#FFFCF9;" d="M391.656,406.881V174.816c0-5.395-4.389-9.784-9.784-9.784H261.173
					c-5.395,0-9.784,4.389-9.784,9.784v232.066H391.656z"/>
				<g>
					<polygon style="fill:#BAE5DC;" points="391.656,285.448 391.656,302.333 251.389,403.834 251.389,386.95 					"/>
					<polygon style="fill:#BAE5DC;" points="391.656,242.791 391.656,248.706 251.389,350.208 251.389,344.293 					"/>
					<polygon style="fill:#BAE5DC;" points="391.656,197.223 391.656,210.379 251.389,311.881 251.389,298.725 					"/>
					<polygon style="fill:#BAE5DC;" points="391.656,174.6 391.656,180.505 251.389,282.017 251.389,276.102 					"/>
				</g>
				<path style="fill:#0186CB;" d="M353.071,387.273h-63.097c-6.246,0-11.31-5.064-11.31-11.31v0c0-6.246,5.064-11.31,11.31-11.31
					h63.097c6.246,0,11.31,5.064,11.31,11.31v0C364.381,382.209,359.318,387.273,353.071,387.273z"/>
				<circle style="fill:#015287;" cx="326.015" cy="420.345" r="9.385"/>
			</g>
			<g>
				<g>
					<rect x="275.493" y="266.63" style="fill:#FF6B3D;" width="92.065" height="76.201"/>
					<g>
						<polygon style="fill:#D65A33;" points="313.04,266.63 275.493,304.187 275.493,286.229 295.082,266.63 						"/>
						<polygon style="fill:#D65A33;" points="350.083,266.63 275.493,341.21 275.493,323.252 332.125,266.63 						"/>
						<polygon style="fill:#D65A33;" points="367.558,268.241 367.558,286.199 310.916,342.831 292.958,342.831 						"/>
						<polygon style="fill:#D65A33;" points="367.558,305.274 367.558,323.232 347.959,342.831 330.001,342.831 						"/>
					</g>
				</g>
				<rect x="315.475" y="266.63" style="fill:#FFA822;" width="12.101" height="76.201"/>
			</g>
			<g>
				<path style="fill:#FFA822;" d="M323.065,259.69c0,0,13.079-22.329,25.468-13.711c1.715,1.193,3.104,2.852,3.782,4.827
					c3.856,11.224-17.306,15.823-29.25,15.823v-2.954c0,0,15.242-1.415,20.407-6.44c2.457-2.39-0.031-6.534-3.305-5.521
					c-6.832,2.113-17.102,11.056-17.102,11.056V259.69z"/>
				<path style="fill:#FFA822;" d="M319.986,259.69c0,0-13.079-22.329-25.468-13.711c-1.714,1.193-3.103,2.852-3.782,4.827
					c-3.856,11.224,17.306,15.823,29.25,15.823v-2.954c0,0-15.242-1.415-20.407-6.44c-2.456-2.39,0.031-6.534,3.305-5.521
					c6.832,2.113,17.102,11.056,17.102,11.056V259.69z"/>
			</g>
			<g>
				<path style="fill:#FFC469;" d="M325.911,264.231c2.558,8.487,9.421,15.553,17.829,18.359c-1.69,0.369-3.767,0.716-5.457,1.085
					c0.06,1.389,0.468,3.07,0.528,4.46c-8.409-4.586-14.955-13.301-15.903-22.832C323.875,265.061,324.945,264.473,325.911,264.231z
					"/>
				<path style="fill:#FFC469;" d="M317.14,264.231c-2.558,8.487-9.421,15.553-17.829,18.359c1.689,0.369,3.767,0.716,5.457,1.085
					c-0.06,1.389-0.468,3.07-0.528,4.46c8.409-4.586,14.955-13.301,15.903-22.832C319.176,265.061,318.106,264.473,317.14,264.231z"
					/>
			</g>
			<path style="fill:#FFC469;" d="M327.576,258.134c0-2.894-12.101-2.894-12.101,0l2.013,8.496h8.075L327.576,258.134z"/>
			<path style="fill:#5A6FD6;" d="M331.584,208.519c-0.863-2.09-3.256-3.428-5.488-3.07c-2.233,0.358-4.408,2.333-4.573,4.588
				c-0.165-2.255-2.341-4.23-4.573-4.588c-2.233-0.359-4.625,0.98-5.488,3.07c-1.02,2.471,0.109,5.421,2.059,7.25
				c1.95,1.829,5.33,3.452,8.003,3.452c2.673,0,6.053-1.624,8.003-3.452C331.475,213.94,332.604,210.99,331.584,208.519z"/>
			<g>
				<path style="fill:#5A6FD6;" d="M377.299,235.946c0.187-2.709-1.672-5.427-4.266-6.233c-2.594-0.806-5.988,0.157-7.37,2.495
					c1.026-2.514-0.26-5.8-2.471-7.378c-2.211-1.578-5.499-1.415-7.544,0.373c-2.417,2.114-2.777,5.891-1.656,8.899
					c1.121,3.008,3.891,6.56,6.767,7.987c2.876,1.427,7.379,1.485,10.453,0.559C374.287,241.72,377.077,239.149,377.299,235.946z"/>
				<path style="fill:#5A6FD6;" d="M265.746,235.946c-0.188-2.709,1.672-5.427,4.266-6.233c2.593-0.806,5.988,0.157,7.37,2.495
					c-1.026-2.514,0.26-5.8,2.471-7.378s5.499-1.415,7.544,0.373c2.417,2.114,2.777,5.891,1.656,8.899
					c-1.121,3.008-3.891,6.56-6.767,7.987c-2.876,1.427-7.379,1.485-10.453,0.559C268.758,241.72,265.968,239.149,265.746,235.946z"
					/>
			</g>
			<g>
				<g>
					<path style="fill:#015287;" d="M369.028,257.048c0,0,14.86-10.723,16.293-8.95C386.753,249.87,369.028,257.048,369.028,257.048
						z"/>
					<path style="fill:#015287;" d="M368.748,223.866c0,0,10.571-14.969,12.501-13.758
						C383.18,211.319,368.748,223.866,368.748,223.866z"/>
					<path style="fill:#015287;" d="M342.354,221.799c0,0,21.43-34.946,24.464-33.227
						C369.853,190.29,342.354,221.799,342.354,221.799z"/>
				</g>
				<g>
					<path style="fill:#015287;" d="M274.017,257.048c0,0-14.86-10.723-16.293-8.95C256.292,249.87,274.017,257.048,274.017,257.048
						z"/>
					<path style="fill:#015287;" d="M274.297,223.866c0,0-10.571-14.969-12.501-13.758
						C259.865,211.319,274.297,223.866,274.297,223.866z"/>
					<path style="fill:#015287;" d="M300.691,221.799c0,0-21.43-34.946-24.464-33.227
						C273.193,190.29,300.691,221.799,300.691,221.799z"/>
				</g>
			</g>
			<path style="fill:#015287;" d="M321.522,201.175c0,0-2.211-16.9-0.374-16.9C322.986,184.275,321.522,201.175,321.522,201.175z"/>
			<g>
				<g>
					<g>
						<path style="fill:#2B2B3B;" d="M166.505,305.349c-3.964-4.051-7.927-8.102-11.891-12.153
							c-1.663-1.699-3.383-3.439-5.563-4.389c-2.18-0.949-4.958-0.927-6.704,0.687c-1.893,1.75-1.852,5.157,0.081,6.862
							c1.933,1.705,5.319,1.319,6.819-0.777c3.67,3.536,6.879,7.083,10.549,10.619C162.031,305.938,164.269,305.608,166.505,305.349
							z"/>
					</g>
					<g>
						<path style="fill:#FF6B3D;" d="M222.079,333.281l-66.249-18.976l-66.249,18.976C73.935,345.266,62.4,373.896,62.4,410.961
							c0,36.066,93.43,33.904,93.43,33.904s93.43,2.162,93.43-33.904C249.26,373.896,237.726,345.266,222.079,333.281z"/>
						<path style="fill:#FFA822;" d="M214.21,331.116l-58.379-16.811l-58.38,16.811c-13.788,10.617-23.952,35.981-23.952,68.816
							c0,31.951,82.332,30.035,82.332,30.035s82.332,1.916,82.332-30.035C238.162,367.096,227.998,341.733,214.21,331.116z"/>
						<path style="fill:#14141C;" d="M244.82,333.21c-0.17,5.73-3.83,11.08-8.83,13.89c-5.01,2.81-11.15,3.23-16.7,1.78
							c-7.57-1.98-13.85-7.09-20.6-11.02c-12.85-7.49-28-10.53-42.86-10.53c-14.86,0-30.01,3.04-42.86,10.53
							c-6.75,3.93-13.03,9.04-20.6,11.02c-5.55,1.45-11.69,1.03-16.7-1.78c-5-2.81-8.66-8.16-8.83-13.89c-0.04-1.5,0.17-3,0.62-4.44
							c1.25-4.07,4.32-7.58,8.36-8.86c5.47-1.73,12.18,1.27,14.02,6.71c18.21-15.32,42.27-23.64,65.99-22.88
							c23.72-0.76,47.78,7.56,66,22.88c1.83-5.44,8.54-8.44,14.01-6.71c4.04,1.28,7.11,4.79,8.37,8.86
							C244.65,330.21,244.86,331.71,244.82,333.21z"/>
						<path style="fill:#2B2B3B;" d="M244.21,328.77c-1.27,4.23-4.34,7.93-8.22,10.12c-5.01,2.81-11.15,3.22-16.7,1.77
							c-7.57-1.98-13.85-7.08-20.6-11.02c-12.85-7.48-28-10.52-42.86-10.52c-14.86,0-30.01,3.04-42.86,10.52
							c-6.75,3.94-13.03,9.04-20.6,11.02c-5.55,1.45-11.69,1.04-16.7-1.77c-3.88-2.19-6.95-5.89-8.21-10.12
							c1.25-4.07,4.32-7.58,8.36-8.86c5.47-1.73,12.18,1.27,14.02,6.71c18.21-15.32,42.27-23.64,65.99-22.88
							c23.72-0.76,47.78,7.56,66,22.88c1.83-5.44,8.54-8.44,14.01-6.71C239.88,321.19,242.95,324.7,244.21,328.77z"/>
					</g>
				</g>
				<text transform="matrix(1 0 0 1 133.7769 416.3047)" style="fill:#FFFFFF; font-family:'Gilroy-Medium'; font-size:80.4897px;">$</text>
			</g>
			<path style="fill:#FF6B3D;" d="M239.061,259.981c0,0,12.782-21.168-7.186-43.029
				C231.875,216.952,220.202,239.788,239.061,259.981z"/>
			<path style="fill:#FF6B3D;" d="M239.061,259.981c0,0-26.938,3.697-32.798-32.55C206.263,227.431,230.186,233.06,239.061,259.981z
				"/>
			<path style="fill:#FFA822;" d="M239.061,259.981c0,0-24.984,1.385-19.341-40.76C219.72,219.221,246.031,236.967,239.061,259.981z
				"/>
			<g>
				<g>
					<path style="fill:#FFA822;" d="M341.956,135.768c-7.11-11.076-20.771-15.396-32.659-11.16l-0.393-0.613l-5.308,3.407
						c-12.903,8.283-16.648,25.458-8.365,38.36c8.283,12.903,25.457,16.648,38.36,8.365l5.308-3.407l-0.394-0.613
						C347.306,161.063,349.066,146.844,341.956,135.768z"/>
					<path style="fill:#FFC469;" d="M335.764,128.95c-0.715-0.563-1.452-1.091-2.213-1.576l-42.45,27.251
						c0.125,0.894,0.298,1.784,0.512,2.669L335.764,128.95z"/>
					<path style="fill:#FFC469;" d="M342.6,136.823c-0.206-0.354-0.421-0.706-0.645-1.055c-1.177-1.834-2.538-3.477-4.037-4.932
						l-45.489,29.202c0.698,1.969,1.623,3.891,2.801,5.725c0.224,0.349,0.457,0.688,0.694,1.023L342.6,136.823z"/>
					<path style="fill:#FFC469;" d="M346.163,153.881c0.255-2.241,0.248-4.518-0.051-6.779l-42.306,27.158
						c1.932,1.215,4.002,2.163,6.147,2.866L346.163,153.881z"/>
					<path style="fill:#FFC469;" d="M345.721,144.901c-0.251-1.164-0.57-2.321-0.977-3.46l-45.513,29.217
						c0.865,0.843,1.778,1.621,2.731,2.334L345.721,144.901z"/>
					
						<ellipse transform="matrix(0.256 -0.9667 0.9667 0.256 98.5341 422.7416)" style="fill:#FFC469;" cx="323.901" cy="147.358" rx="27.762" ry="27.762"/>
					
						<ellipse transform="matrix(0.7635 -0.6458 0.6458 0.7635 -18.5628 244.0269)" style="fill:#FFA822;" cx="323.901" cy="147.358" rx="23.2" ry="23.2"/>
					<path style="fill:#FF6B3D;" d="M339.875,164.179c-1.035,0.996-2.191,1.903-3.442,2.706c-10.782,6.921-25.13,3.787-32.052-6.995
						c-6.921-10.782-3.797-25.133,6.984-32.054c1.251-0.803,2.557-1.476,3.894-2.003c-7.929,7.51-9.663,19.827-3.549,29.352
						C317.824,164.71,329.746,168.262,339.875,164.179z"/>
				</g>
				<g>
					<path style="fill:#FFFFFF;" d="M319.79,131.923l14.026,21.85l-4.994,3.206l-10.64-16.574l-3.189,3.546l-3.963-3.495l4.39-5.727
						L319.79,131.923z"/>
				</g>
			</g>
			<g>
				<path style="fill:#FFA822;" d="M185.977,84.064l-3.347,11.87c-1.302,4.619,14.816,13.205,36.001,19.178
					c21.185,5.973,39.414,7.071,40.716,2.453l3.347-11.869L185.977,84.064z"/>
				<path style="fill:#FFC469;" d="M223.581,94.667l-5.703,20.228c0.252,0.072,0.5,0.146,0.754,0.217
					c3.844,1.084,7.588,2.005,11.153,2.762l5.605-19.878L223.581,94.667z"/>
				<path style="fill:#FFC469;" d="M199.511,87.88l-5.141,18.235c2.107,1.039,4.432,2.084,6.965,3.116l5.442-19.302L199.511,87.88z"
					/>
				<path style="fill:#FFC469;" d="M209.048,90.569l-5.507,19.533c2.255,0.873,4.626,1.733,7.121,2.563l5.653-20.048L209.048,90.569
					z"/>
				<path style="fill:#FFC469;" d="M237.66,98.636l-5.557,19.709c2.794,0.549,5.465,0.995,7.96,1.328l5.318-18.86L237.66,98.636z"/>
				<path style="fill:#FFC469;" d="M262.694,105.695c-1.302,4.619-19.532,3.521-40.716-2.453
					c-21.185-5.973-37.303-14.559-36.001-19.178c1.302-4.618,19.532-3.52,40.717,2.453
					C247.878,92.49,263.996,101.076,262.694,105.695z"/>
				<path style="fill:#FFA822;" d="M223.13,99.154c-17.097-4.821-27.68-10.401-31.527-13.504c4.902-0.636,16.841,0.133,33.938,4.954
					c17.097,4.821,27.68,10.401,31.528,13.504C252.167,104.744,240.228,103.975,223.13,99.154z"/>
				<path style="fill:#FF6B3D;" d="M256.696,104.151c-5.128,0.555-16.891-0.291-33.567-4.993
					c-16.69-4.706-27.158-10.143-31.231-13.277c8.796,3.127,19.53,6.58,32.119,10.13C236.605,99.56,247.562,102.222,256.696,104.151
					z"/>
			</g>
			<g>
				<g>
					<path style="fill:#FFA822;" d="M179.29,169.51c-7.364-4.303-19.883-4.338-32.409,0.673
						c-12.527,5.012-21.567,13.672-23.931,21.866l-2.763,1.105l2.982,7.455c3.989,9.97,21.071,12.511,38.155,5.677
						c17.084-6.835,27.7-20.457,23.712-30.427l-2.982-7.455L179.29,169.51z"/>
					<path style="fill:#FFC469;" d="M154.331,167.794l14.036,35.085c3.281-1.881,6.202-4.008,8.667-6.282l-12.093-30.229
						C161.588,166.42,158.005,166.893,154.331,167.794z"/>
					<path style="fill:#FFC469;" d="M126.184,185.51l9.58,23.946c4.272,0.87,9.262,0.894,14.559-0.024l-13.574-33.93
						C132.289,178.488,128.677,181.939,126.184,185.51z"/>
					<path style="fill:#FFC469;" d="M146.881,170.183c-2.019,0.808-3.935,1.719-5.76,2.698l14.175,35.432
						c1.995-0.549,4.011-1.22,6.028-2.027c1.47-0.588,2.886-1.23,4.254-1.912l-14.298-35.741
						C149.819,169.083,148.351,169.595,146.881,170.183z"/>
					<path style="fill:#FFC469;" d="M168.368,166.464l11.082,27.702c1.588-1.752,2.921-3.559,3.945-5.382l-8.457-21.139
						C172.94,167.03,170.727,166.639,168.368,166.464z"/>
					
						<ellipse transform="matrix(0.9285 -0.3714 0.3714 0.9285 -56.3369 69.0649)" style="fill:#FFC469;" cx="151.12" cy="180.78" rx="33.317" ry="19.443"/>
					<path style="fill:#FFA822;" d="M156.464,194.139c-15.464,6.186-29.057,3.458-31.584-2.861
						c-2.528-6.319,5.432-17.67,20.896-23.857c15.464-6.186,29.057-3.457,31.585,2.861S171.928,187.952,156.464,194.139z"/>
					<path style="fill:#FF6B3D;" d="M177.36,170.287c2.523,6.313-5.436,17.664-20.902,23.85c-15.452,6.19-29.054,3.458-31.577-2.855
						c-0.715-1.787-0.592-3.969,0.301-6.334c4.685,4.474,16.591,5.744,29.887,0.421c11.083-4.435,18.328-11.528,20.587-17.519
						C176.431,168.575,177.007,169.402,177.36,170.287z"/>
				</g>
				<g>
					<path style="fill:#FFFFFF;" d="M134.721,180.564l27.401-10.59l2.42,6.264l-20.786,8.033l3.207,4.339l-4.773,3.6l-5.353-6.165
						L134.721,180.564z"/>
				</g>
			</g>
		</g>
		<g>
			<text transform="matrix(1 0 0 1 290.2988 379.4425)" style="fill:#FFFCF9; font-family:'Gilroy-ExtraBold'; font-size:12px;">CASHBACK</text>
		</g>
	</g>
</g>
</svg>
